<?xml version="1.0" standalone="no"?>
<!DOCTYPE svg PUBLIC "-//W3C//DTD SVG 20010904//EN"
 "http://www.w3.org/TR/2001/REC-SVG-20010904/DTD/svg10.dtd">
<svg version="1.0" xmlns="http://www.w3.org/2000/svg"
 width="700.000000pt" height="700.000000pt" viewBox="0 0 700.000000 700.000000"
 preserveAspectRatio="xMidYMid meet">
<metadata>
Created by potrace 1.11, written by Peter Selinger 2001-2013
</metadata>
<g transform="translate(0.000000,700.000000) scale(0.100000,-0.100000)"
fill="#000000" stroke="none">
<path d="M0 3500 l0 -3500 3500 0 3500 0 0 3500 0 3500 -3500 0 -3500 0 0
-3500z m2737 1343 c-1 -1 -303 -303 -671 -671 l-668 -669 673 -671 674 -671
-205 -206 -205 -205 -875 875 -875 875 875 875 875 875 202 -202 c111 -111
201 -203 200 -205z m2803 -2218 l-875 -875 -205 205 -205 205 673 672 672 673
-670 670 -670 670 202 202 203 203 875 -875 875 -875 -875 -875z"/>
</g>
</svg>
